{
  "accessors": [
    {
      "bufferView": 2,
      "componentType": 5126,
      "count": 6324,
      "max": [
        0.2920491695404053,
        0.15049654245376587,
        8.368241310119629
      ],
      "min": [
        -4.744528770446777,
        -0.22039355337619781,
        0.2568521499633789
      ],
      "type": "VEC3"
    },
    {
      "bufferView": 2,
      "byteOffset": 75888,
      "componentType": 5126,
      "count": 6324,
      "max": [
        0.9997825622558594,
        0.9997717142105103,
        0.9947774410247803
      ],
      "min": [
        -0.9964679479598999,
        -0.9999997615814209,
        -0.9993855357170105
      ],
      "type": "VEC3"
    },
    {
      "bufferView": 3,
      "componentType": 5126,
      "count": 6324,
      "max": [
        0.9999415278434753,
        0.9854885339736938,
        0.9999682903289795,
        1.0
      ],
      "min": [
        -0.9999516606330872,
        -0.9969699382781982,
        -0.9997841715812683,
        -1.0
      ],
      "type": "VEC4"
    },
    {
      "bufferView": 1,
      "componentType": 5126,
      "count": 6324,
      "max": [
        0.9980400204658508,
        0.9626799821853638
      ],
      "min": [
        0.0019499999471008778,
        0.0019499999471008778
      ],
      "type": "VEC2"
    },
    {
      "bufferView": 1,
      "byteOffset": 50592,
      "componentType": 5126,
      "count": 6324,
      "max": [
        0.9980400204658508,
        0.9626799821853638
      ],
      "min": [
        0.0019499999471008778,
        0.0019499999471008778
      ],
      "type": "VEC2"
    },
    {
      "bufferView": 0,
      "componentType": 5125,
      "count": 35718,
      "type": "SCALAR"
    },
    {
      "bufferView": 2,
      "byteOffset": 151776,
      "componentType": 5126,
      "count": 1552,
      "max": [
        0.5040510892868042,
        0.8430832028388977,
        7.5783796310424805
      ],
      "min": [
        -3.8825201988220215,
        -0.10569330304861069,
        -1.047741413116455
      ],
      "type": "VEC3"
    },
    {
      "bufferView": 2,
      "byteOffset": 170400,
      "componentType": 5126,
      "count": 1552,
      "max": [
        0.9999663829803467,
        0.9999071359634399,
        0.9985664486885071
      ],
      "min": [
        -0.9987924695014954,
        -0.9998641610145569,
        -0.9885525703430176
      ],
      "type": "VEC3"
    },
    {
      "bufferView": 3,
      "byteOffset": 101184,
      "componentType": 5126,
      "count": 1552,
      "max": [
        0.9996616840362549,
        0.9747281074523926,
        0.9987016916275024,
        -1.0
      ],
      "min": [
        -0.9982666373252869,
        -0.9983663558959961,
        -0.9983278512954712,
        -1.0
      ],
      "type": "VEC4"
    },
    {
      "bufferView": 1,
      "byteOffset": 101184,
      "componentType": 5126,
      "count": 1552,
      "max": [
        0.9980400204658508,
        0.990369975566864
      ],
      "min": [
        0.0019499999471008778,
        0.0019499999471008778
      ],
      "type": "VEC2"
    },
    {
      "bufferView": 1,
      "byteOffset": 113600,
      "componentType": 5126,
      "count": 1552,
      "max": [
        0.9980400204658508,
        0.990369975566864
      ],
      "min": [
        0.0019499999471008778,
        0.0019499999471008778
      ],
      "type": "VEC2"
    },
    {
      "bufferView": 0,
      "byteOffset": 142872,
      "componentType": 5125,
      "count": 8118,
      "type": "SCALAR"
    },
    {
      "bufferView": 2,
      "byteOffset": 189024,
      "componentType": 5126,
      "count": 3657,
      "max": [
        1.410882830619812,
        0.9809061288833618,
        8.928910255432129
      ],
      "min": [
        -5.3691792488098145,
        -0.14590862393379211,
        -0.4681905210018158
      ],
      "type": "VEC3"
    },
    {
      "bufferView": 2,
      "byteOffset": 232908,
      "componentType": 5126,
      "count": 3657,
      "max": [
        0.9998923540115356,
        0.9998378157615662,
        0.9994502067565918
      ],
      "min": [
        -0.9951720237731934,
        -0.9999997019767761,
        -0.9999327659606934
      ],
      "type": "VEC3"
    },
    {
      "bufferView": 3,
      "byteOffset": 126016,
      "componentType": 5126,
      "count": 3657,
      "max": [
        0.9993283152580261,
        0.9982666373252869,
        0.9999920129776001,
        1.0
      ],
      "min": [
        -0.9999951720237732,
        -0.9979645609855652,
        -0.9999825358390808,
        -1.0
      ],
      "type": "VEC4"
    },
    {
      "bufferView": 1,
      "byteOffset": 126016,
      "componentType": 5126,
      "count": 3657,
      "max": [
        0.9980400204658508,
        0.9362099766731262
      ],
      "min": [
        0.0019499999471008778,
        0.0019499999471008778
      ],
      "type": "VEC2"
    },
    {
      "bufferView": 1,
      "byteOffset": 155272,
      "componentType": 5126,
      "count": 3657,
      "max": [
        0.9980400204658508,
        0.9362099766731262
      ],
      "min": [
        0.0019499999471008778,
        0.0019499999471008778
      ],
      "type": "VEC2"
    },
    {
      "bufferView": 0,
      "byteOffset": 175344,
      "componentType": 5125,
      "count": 19581,
      "type": "SCALAR"
    },
    {
      "bufferView": 2,
      "byteOffset": 276792,
      "componentType": 5126,
      "count": 5242,
      "max": [
        1.5720171928405762,
        3.1834123134613037,
        9.04884147644043
      ],
      "min": [
        -5.563232421875,
        -0.02202950045466423,
        -0.6425923705101013
      ],
      "type": "VEC3"
    },
    {
      "bufferView": 2,
      "byteOffset": 339696,
      "componentType": 5126,
      "count": 5242,
      "max": [
        0.9999887347221375,
        0.9998664259910583,
        0.9999760389328003
      ],
      "min": [
        -0.9994971752166748,
        -1.0,
        -0.9978271722793579
      ],
      "type": "VEC3"
    },
    {
      "bufferView": 1,
      "byteOffset": 184528,
      "componentType": 5126,
      "count": 5242,
      "max": [
        0.9980400204658508,
        0.9980400204658508
      ],
      "min": [
        0.0769599974155426,
        0.0019499999471008778
      ],
      "type": "VEC2"
    },
    {
      "bufferView": 0,
      "byteOffset": 253668,
      "componentType": 5125,
      "count": 31008,
      "type": "SCALAR"
    },
    {
      "bufferView": 2,
      "byteOffset": 402600,
      "componentType": 5126,
      "count": 13872,
      "max": [
        2.9054863452911377,
        0.28172579407691956,
        8.90280818939209
      ],
      "min": [
        -5.303317546844482,
        -0.8990999460220337,
        -0.4412508010864258
      ],
      "type": "VEC3"
    },
    {
      "bufferView": 2,
      "byteOffset": 569064,
      "componentType": 5126,
      "count": 13872,
      "max": [
        0.9998891353607178,
        0.9999984502792358,
        0.999945878982544
      ],
      "min": [
        -0.999900221824646,
        -0.9999899864196777,
        -0.9999629855155945
      ],
      "type": "VEC3"
    },
    {
      "bufferView": 0,
      "byteOffset": 377700,
      "componentType": 5125,
      "count": 79452,
      "type": "SCALAR"
    },
    {
      "bufferView": 2,
      "byteOffset": 735528,
      "componentType": 5126,
      "count": 14330,
      "max": [
        1.95909583568573,
        -0.003894980065524578,
        8.856973648071289
      ],
      "min": [
        -5.254091739654541,
        -1.7049657106399536,
        -0.43358319997787476
      ],
      "type": "VEC3"
    },
    {
      "bufferView": 2,
      "byteOffset": 907488,
      "componentType": 5126,
      "count": 14330,
      "max": [
        0.9997426271438599,
        0.999992311000824,
        0.9997457265853882
      ],
      "min": [
        -0.9995191693305969,
        -0.9999933242797852,
        -0.9998857975006104
      ],
      "type": "VEC3"
    },
    {
      "bufferView": 0,
      "byteOffset": 695508,
      "componentType": 5125,
      "count": 79452,
      "type": "SCALAR"
    }
  ],
  "asset": {
    "extras": {
      "author": "cgmac (https://sketchfab.com/cgmac)",
      "license": "CC-BY-4.0 (http://creativecommons.org/licenses/by/4.0/)",
      "source": "https://sketchfab.com/3d-models/kidney-686992c2a7fb456eaa8997b0366f4062",
      "title": "Kidney"
    },
    "generator": "Sketchfab-12.65.0",
    "version": "2.0"
  },
  "bufferViews": [
    {
      "buffer": 0,
      "byteLength": 1013316,
      "name": "floatBufferViews",
      "target": 34963
    },
    {
      "buffer": 0,
      "byteLength": 226464,
      "byteOffset": 1013316,
      "byteStride": 8,
      "name": "floatBufferViews",
      "target": 34962
    },
    {
      "buffer": 0,
      "byteLength": 1079448,
      "byteOffset": 1239780,
      "byteStride": 12,
      "name": "floatBufferViews",
      "target": 34962
    },
    {
      "buffer": 0,
      "byteLength": 184528,
      "byteOffset": 2319228,
      "byteStride": 16,
      "name": "floatBufferViews",
      "target": 34962
    }
  ],
  "buffers": [
    {
      "byteLength": 2503756,
      "uri": "scene.bin"
    }
  ],
  "images": [
    {
      "uri": "textures/Maya_201803_-_Default_baseColor.jpeg"
    },
    {
      "uri": "textures/Maya_201803_-_Default_normal.png"
    },
    {
      "uri": "textures/Maya_2018Renal___Ureter_Diffuse_baseColor.jpeg"
    },
    {
      "uri": "textures/Maya_2018Renal___Ureter_Diffuse_normal.png"
    },
    {
      "uri": "textures/Maya_2018Cortex_Diffuse_baseColor.jpeg"
    },
    {
      "uri": "textures/Maya_2018Cortex_Diffuse_normal.png"
    },
    {
      "uri": "textures/Maya_2018Capsule2_baseColor.jpeg"
    }
  ],
  "materials": [
    {
      "doubleSided": true,
      "name": "Maya_201803_-_Default",
      "normalTexture": {
        "index": 1
      },
      "pbrMetallicRoughness": {
        "baseColorTexture": {
          "index": 0
        },
        "metallicFactor": 0.0,
        "roughnessFactor": 0.15056964026881414
      }
    },
    {
      "doubleSided": true,
      "name": "Maya_2018Renal___Ureter_Diffuse",
      "normalTexture": {
        "index": 3
      },
      "pbrMetallicRoughness": {
        "baseColorTexture": {
          "index": 2
        },
        "metallicFactor": 0.0,
        "roughnessFactor": 0.5230582640666377
      }
    },
    {
      "doubleSided": true,
      "name": "Maya_2018Cortex_Diffuse",
      "normalTexture": {
        "index": 5
      },
      "pbrMetallicRoughness": {
        "baseColorTexture": {
          "index": 4
        },
        "metallicFactor": 0.0,
        "roughnessFactor": 0.5778168900903418
      }
    },
    {
      "doubleSided": true,
      "name": "Maya_2018Capsule2",
      "pbrMetallicRoughness": {
        "baseColorTexture": {
          "index": 6
        },
        "metallicFactor": 0.0
      }
    },
    {
      "doubleSided": true,
      "name": "Maya_2018red",
      "pbrMetallicRoughness": {
        "baseColorFactor": [
          1.0,
          0.0,
          0.0,
          1.0
        ],
        "metallicFactor": 0.0,
        "roughnessFactor": 0.7513522788262136
      }
    },
    {
      "doubleSided": true,
      "name": "Maya_2018blue",
      "pbrMetallicRoughness": {
        "baseColorFactor": [
          0.0,
          0.0,
          1.0,
          1.0
        ],
        "metallicFactor": 0.0,
        "roughnessFactor": 0.726885641082164
      }
    }
  ],
  "meshes": [
    {
      "name": "Maya_2018:Medulla pyramid_Maya_2018:03 - Default_0",
      "primitives": [
        {
          "attributes": {
            "NORMAL": 1,
            "POSITION": 0,
            "TANGENT": 2,
            "TEXCOORD_0": 3,
            "TEXCOORD_1": 4
          },
          "indices": 5,
          "material": 0,
          "mode": 4
        }
      ]
    },
    {
      "name": "Maya_2018:Ureter_Maya_2018:Renal___Ureter_Diffuse_0",
      "primitives": [
        {
          "attributes": {
            "NORMAL": 7,
            "POSITION": 6,
            "TANGENT": 8,
            "TEXCOORD_0": 9,
            "TEXCOORD_1": 10
          },
          "indices": 11,
          "material": 1,
          "mode": 4
        }
      ]
    },
    {
      "name": "Maya_2018:Cortex_Maya_2018:Cortex_Diffuse_0",
      "primitives": [
        {
          "attributes": {
            "NORMAL": 13,
            "POSITION": 12,
            "TANGENT": 14,
            "TEXCOORD_0": 15,
            "TEXCOORD_1": 16
          },
          "indices": 17,
          "material": 2,
          "mode": 4
        }
      ]
    },
    {
      "name": "Maya_2018:Capsule_Maya_2018:Capsule2_0",
      "primitives": [
        {
          "attributes": {
            "NORMAL": 19,
            "POSITION": 18,
            "TEXCOORD_0": 20
          },
          "indices": 21,
          "material": 3,
          "mode": 4
        }
      ]
    },
    {
      "name": "Maya_2018:RED_Maya_2018:red_0",
      "primitives": [
        {
          "attributes": {
            "NORMAL": 23,
            "POSITION": 22
          },
          "indices": 24,
          "material": 4,
          "mode": 4
        }
      ]
    },
    {
      "name": "Maya_2018:BLUE_Maya_2018:blue_0",
      "primitives": [
        {
          "attributes": {
            "NORMAL": 26,
            "POSITION": 25
          },
          "indices": 27,
          "material": 5,
          "mode": 4
        }
      ]
    }
  ],
  "nodes": [
    {
      "children": [
        1
      ],
      "matrix": [
        1.0,
        0.0,
        0.0,
        0.0,
        0.0,
        2.220446049250313e-16,
        -1.0,
        0.0,
        0.0,
        1.0,
        2.220446049250313e-16,
        0.0,
        0.0,
        0.0,
        0.0,
        1.0
      ],
      "name": "Sketchfab_model"
    },
    {
      "children": [
        2
      ],
      "matrix": [
        1.0,
        0.0,
        0.0,
        0.0,
        0.0,
        0.0,
        1.0,
        0.0,
        0.0,
        -1.0,
        0.0,
        0.0,
        0.0,
        0.0,
        0.0,
        1.0
      ],
      "name": "0b81bbbf931b4cb98b72c8acc4c4ac6d.fbx"
    },
    {
      "children": [
        3,
        12,
        14
      ],
      "name": "RootNode"
    },
    {
      "children": [
        4,
        6,
        8,
        10
      ],
      "matrix": [
        1.0,
        0.0,
        0.0,
        0.0,
        0.0,
        2.220446049250313e-16,
        -1.0,
        0.0,
        0.0,
        1.0,
        2.220446049250313e-16,
        0.0,
        -1.3310725688934326,
        3.987809896469116,
        -0.7423142790794373,
        1.0
      ],
      "name": "Maya_2018:KIDNEY"
    },
    {
      "children": [
        5
      ],
      "matrix": [
        1.0,
        0.0,
        0.0,
        0.0,
        0.0,
        1.0,
        0.0,
        0.0,
        0.0,
        0.0,
        1.0,
        0.0,
        1.3310725688934326,
        -0.748557448387146,
        -4.004290580749512,
        1.0
      ],
      "name": "Maya_2018:Medulla pyramid"
    },
    {
      "mesh": 0,
      "name": "Maya_2018:Medulla pyramid_Maya_2018:03 - Default_0"
    },
    {
      "children": [
        7
      ],
      "matrix": [
        1.0,
        0.0,
        0.0,
        0.0,
        0.0,
        1.0,
        0.0,
        0.0,
        0.0,
        0.0,
        1.0,
        0.0,
        1.3310725688934326,
        -0.748557448387146,
        -4.004290580749512,
        1.0
      ],
      "name": "Maya_2018:Ureter"
    },
    {
      "mesh": 1,
      "name": "Maya_2018:Ureter_Maya_2018:Renal___Ureter_Diffuse_0"
    },
    {
      "children": [
        9
      ],
      "matrix": [
        1.0,
        0.0,
        0.0,
        0.0,
        0.0,
        1.0,
        0.0,
        0.0,
        0.0,
        0.0,
        1.0,
        0.0,
        1.3310725688934326,
        -0.748557448387146,
        -4.004290580749512,
        1.0
      ],
      "name": "Maya_2018:Cortex"
    },
    {
      "mesh": 2,
      "name": "Maya_2018:Cortex_Maya_2018:Cortex_Diffuse_0"
    },
    {
      "children": [
        11
      ],
      "matrix": [
        1.0,
        0.0,
        0.0,
        0.0,
        0.0,
        1.0,
        0.0,
        0.0,
        0.0,
        0.0,
        1.0,
        0.0,
        1.3310725688934326,
        -0.748557448387146,
        -4.004290580749512,
        1.0
      ],
      "name": "Maya_2018:Capsule"
    },
    {
      "mesh": 3,
      "name": "Maya_2018:Capsule_Maya_2018:Capsule2_0"
    },
    {
      "children": [
        13
      ],
      "matrix": [
        1.0,
        0.0,
        0.0,
        0.0,
        0.0,
        2.220446049250313e-16,
        -1.0,
        0.0,
        0.0,
        1.0,
        2.220446049250313e-16,
        0.0,
        0.0,
        0.0,
        0.0,
        1.0
      ],
      "name": "Maya_2018:RED"
    },
    {
      "mesh": 4,
      "name": "Maya_2018:RED_Maya_2018:red_0"
    },
    {
      "children": [
        15
      ],
      "matrix": [
        1.0,
        0.0,
        0.0,
        0.0,
        0.0,
        2.220446049250313e-16,
        -1.0,
        0.0,
        0.0,
        1.0,
        2.220446049250313e-16,
        0.0,
        0.0,
        0.0,
        0.0,
        1.0
      ],
      "name": "Maya_2018:BLUE"
    },
    {
      "mesh": 5,
      "name": "Maya_2018:BLUE_Maya_2018:blue_0"
    }
  ],
  "samplers": [
    {
      "magFilter": 9729,
      "minFilter": 9987,
      "wrapS": 10497,
      "wrapT": 10497
    }
  ],
  "scene": 0,
  "scenes": [
    {
      "name": "Sketchfab_Scene",
      "nodes": [
        0
      ]
    }
  ],
  "textures": [
    {
      "sampler": 0,
      "source": 0
    },
    {
      "sampler": 0,
      "source": 1
    },
    {
      "sampler": 0,
      "source": 2
    },
    {
      "sampler": 0,
      "source": 3
    },
    {
      "sampler": 0,
      "source": 4
    },
    {
      "sampler": 0,
      "source": 5
    },
    {
      "sampler": 0,
      "source": 6
    }
  ]
}
